<?xml version="1.0" encoding="UTF-8"?>

<svg xmlns="http://www.w3.org/2000/svg" viewBox="0 0 400 400" width="400" height="400" role="presentation" aria-hidden="true">
  <defs>
    <linearGradient id="stem" x1="0" y1="1" x2="1" y2="0">
      <stop offset="0%" stop-color="#7A6BD8"></stop>
      <stop offset="100%" stop-color="#6FA56F"></stop>
    </linearGradient>
  </defs>
  <g stroke="url(#stem)" stroke-width="1.2" fill="none" stroke-linecap="round" opacity="0.6">

    <path d="M 60 360 Q 110 220 200 120 Q 260 60 340 40"></path>

    <path d="M 90 300 Q 60 295 50 270"></path>
    <path d="M 110 265 Q 78 258 65 230"></path>
    <path d="M 135 225 Q 100 215 88 185"></path>
    <path d="M 160 190 Q 125 178 115 148"></path>
    <path d="M 190 150 Q 155 135 148 105"></path>
    <path d="M 225 115 Q 195 95 192 70"></path>
    <path d="M 265 80  Q 240 62 240 40"></path>

    <path d="M 100 320 Q 140 320 160 300"></path>
    <path d="M 125 280 Q 165 278 188 255"></path>
    <path d="M 150 240 Q 190 238 215 215"></path>
    <path d="M 180 205 Q 220 200 245 175"></path>
    <path d="M 215 170 Q 255 162 280 135"></path>
    <path d="M 250 135 Q 290 125 315 100"></path>
  </g>


  <g opacity="0.4">
    <circle cx="70" cy="355" r="2.5" fill="#7A6BD8"></circle>
    <circle cx="335" cy="45" r="2.5" fill="#6FA56F"></circle>
    <circle cx="180" cy="210" r="2" fill="#7A6BD8"></circle>
    <circle cx="240" cy="140" r="2" fill="#6FA56F"></circle>
  </g>
</svg>